<svg xmlns="http://www.w3.org/2000/svg" viewBox="0 0 800 290"><g fill="none" stroke-width="2"><path stroke="#f39096" d="M358.85 38.42a1 1 0 0 1 1.7.01l24.18 39.04q.94 1.53-.86 1.53h-46.02q-1.83 0-.84 1.54l9.86 15.25a1 .98-15.9 0 0 .84.46h49.13a1.02 1.01 73.8 0 1 .86.48l9.7 16.04a1.01.99-15.3 0 0 .86.48h19.82q1.82 0 .84-1.54-28.3-44.36-56.67-88.66c-4.69-7.33-13.11-10.25-20.44-5.11q-2.94 2.06-6.49 7.62-27.47 43.08-54.98 86.15-.98 1.54.85 1.54h19.93a1.02 1-73.5 0 0 .85-.47l46.88-74.36M791.11 26.77a10.97 10.97 0 0 0-10.97-10.97 10.97 10.97 0 0 0-10.97 10.97 10.97 10.97 0 0 0 10.97 10.97 10.97 10.97 0 0 0 10.97-10.97M43.96 110.24q7.89 3 14.54 3 26.79.03 53.57 0 10.54-.02 16.11-1.4c49.23-12.25 48.83-82.79-.8-94.21q-6.15-1.42-19.38-1.39-20.57.04-41.14-.01-10.75-.02-16.6 1.29C2.59 28.25-1.6 92.91 43.96 110.24" vector-effect="non-scaling-stroke"/><path stroke="#f39096" d="M194.5 33.81q29.54-.13 59.08-.03 5.15.01 7.99 1.32c12.83 5.91 11.76 24.56-1.7 28.85q-2.47.79-8.82.79-23.34.02-46.16.01-2.68 0-.66 1.76L257.69 113a1 .98-23.7 0 0 .66.25h24.31q2.75 0 .64-1.77l-33.01-27.7q-2.1-1.76.64-1.77l4.18-.02c18.09-.08 32.3-12.97 33.6-30.83 1.09-14.89-9.05-29.28-23.1-33.36q-5.36-1.56-18.85-1.55h-71.01a1 1 0 0 0-1 1v95a1 1 0 0 0 1 1h16.75a1 1 0 0 0 1-1V34.81a1 1 0 0 1 1-1M530.66 24.12q2.1-3.28 4.06-6.32.99-1.54-.84-1.54-29.12-.02-58.2 0-12.13 0-18.13 1.42c-49.1 11.61-49.79 81.86-.78 94.09q5.99 1.49 19.58 1.49 24.62-.01 49.23-.03a1.02 1-73.1 0 0 .84-.46l9.71-15.23q.98-1.54-.84-1.54-30.51-.01-61.16 0-8.23.01-12.18-1.02c-30.17-7.81-31.49-50.19-1.71-59.83q4.18-1.35 11.81-1.37 25.92-.06 51.85-.04a1.01 1.01 0 0 0 .84-.45q3.01-4.62 5.92-9.17M564 95V17.25a1 1 0 0 0-1-1h-16.75a1 1 0 0 0-1 1q-.01 42.44.01 84.87c0 8.4 4.26 11.12 12.46 11.12q40.72.02 81.48 0a1.02 1-73.1 0 0 .84-.46l9.82-15.24q1-1.54-.84-1.54H565a1 1 0 0 1-1-1M666.64 54.9q5.68-15.21 20.42-19.81 4.16-1.3 11.19-1.32 25.93-.06 51.92.01a1 .99 15.6 0 0 .85-.47l9.83-15.46q.97-1.53-.84-1.54-28.6-.13-57.19-.04-13.79.05-19.87 1.54c-22.02 5.39-37.58 26.42-36.49 48.97 1.07 22.1 16.85 41.41 39.15 45.59q4.65.87 6.64.88 29.81.02 59.63-.02a1 .98 15.9 0 0 .84-.46l9.72-15.24q.98-1.53-.84-1.53-30.85.01-61.65-.01-8.18 0-12.64-1.35-14.8-4.45-20.75-19.78a1 1 0 0 1 .93-1.36H745a1 .98 15.9 0 0 .84-.46l9.78-15.25q.99-1.54-.84-1.54h-87.2a1 1 0 0 1-.94-1.35" vector-effect="non-scaling-stroke"/><path stroke="gray" d="M763.27 165.82a.57.57 0 0 0-.57-.57H12.56a.57.57 0 0 0-.57.57v4.36a.57.57 0 0 0 .57.57H762.7a.57.57 0 0 0 .57-.57v-4.36M354.19 268.56c13.58 10.6 38.07 9.45 45.78-8.5 10.33-24.08-.58-53.13-31.23-48.82q-14.81 2.09-20.91 15.57c-5.37 11.87-4.77 33.07 6.36 41.75M250.37 274.05c14.56 3.81 31.99-1.69 32.75-19.26a1 1 0 0 0-1-1.04H270a1 .99-87.1 0 0-.99.9q-1 10.01-10.71 10.61c-17.05 1.05-17.29-40.2-1.38-43.33 7.51-1.48 10.82 3.28 12.11 9.76a1 1 0 0 0 .98.81h11.6a1 1 0 0 0 1-1.04c-.54-15.09-14.64-21.32-27.88-19.19q-13.18 2.12-19.14 13.63c-8.19 15.81-5.14 42.94 14.78 48.15M311.61 263.25a.36.36 0 0 1-.36-.36v-50.28a.36.36 0 0 0-.36-.36h-13.03a.36.36 0 0 0-.36.36v60.78a.36.36 0 0 0 .36.36h39.28a.36.36 0 0 0 .36-.36v-9.78a.36.36 0 0 0-.36-.36h-25.53M419.79 249.66c.06 12.25 3.92 20.87 16.7 24.07 16.16 4.05 36.27-1.93 36.42-21.74q.15-19.33.03-38.75a1 1 0 0 0-1-.99h-10.93a1 1 0 0 0-1 1q.01 19.51-.03 38.99c-.01 10.25-8.16 13.41-16.98 12.26-7.29-.95-10.04-6.41-10.01-13.26q.06-18.95-.04-38a1 1 0 0 0-1-.99h-11.18a1 1 0 0 0-1 1q-.07 18.23.02 36.41M525.73 272.08c15.22-5.18 20.5-23.58 17.32-37.87q-4.7-21.12-27.36-21.58-18.32-.37-23.2-.32a1 1 0 0 0-.99 1v59.42a1 1 0 0 0 .99 1q8.24.06 16.45.02 12.08-.07 16.79-1.67" vector-effect="non-scaling-stroke"/><path stroke="#f39096" d="M788.5 26.69a8.37 8.37 0 0 0-8.37-8.37 8.37 8.37 0 0 0-8.37 8.37 8.37 8.37 0 0 0 8.37 8.37 8.37 8.37 0 0 0 8.37-8.37M30.83 67.42c1.34 15 14.51 28.54 29.92 28.57q25.22.04 50.44-.01 9.29-.02 13.83-1.45c29.22-9.2 28.64-50.71-.74-59.51q-4.31-1.29-11.73-1.28-23.46.02-46.92.02-8.67 0-13.11 1.37c-13.64 4.24-22.94 18.28-21.69 32.29" vector-effect="non-scaling-stroke"/><path stroke="#f39096" d="M783.5 26.95q1.27-.8 1.29-2.46.05-3.89-6.09-4.41-2.68-.23-2.69 2.39l-.02 8.96a1.01 1 2.8 0 0 .91 1l.5.04a1 1 0 0 0 1.1-.99v-2.75a.82.79-23.3 0 1 .24-.57c1.37-1.37 2.94 3.83 4.12 4.46q.68.36 1.39.16a1.01 1 67.3 0 0 .59-1.45l-1.68-3.05a1 .99-30.9 0 1 .34-1.33" vector-effect="non-scaling-stroke"/><path stroke="#f39096" d="M782.02 24.84a1 1 0 0 0-.15-1.66q-4.15-2.21-3.31 1.79a1 .99-6.9 0 0 1.01.79q1.36-.03 2.45-.92" vector-effect="non-scaling-stroke"/><path stroke="gray" d="M361.34 256.89c3.56 8.62 13.3 11.03 20.57 6.32 10.44-6.75 10.61-33.43.11-40.29-9.57-6.26-19.66-.15-22.17 10.09q-3.13 12.73 1.49 23.88M528.8 250.7c3.18-11.79.72-25.98-13.82-28.01q-4.37-.61-8.8-.3a1.01 1-2.2 0 0-.93 1v39.08a1 .99-89.4 0 0 .97 1q3.83.1 7.5.03c8.32-.16 12.96-4.95 15.08-12.8" vector-effect="non-scaling-stroke"/></g><path fill="#fff" d="M0 0h800v290H0V0Zm358.85 38.42a1 1 0 0 1 1.7.01l24.18 39.04q.94 1.53-.86 1.53h-46.02q-1.83 0-.84 1.54l9.86 15.25a1 .98-15.9 0 0 .84.46h49.13a1.02 1.01 73.8 0 1 .86.48l9.7 16.04a1.01.99-15.3 0 0 .86.48h19.82q1.82 0 .84-1.54-28.3-44.36-56.67-88.66c-4.69-7.33-13.11-10.25-20.44-5.11q-2.94 2.06-6.49 7.62-27.47 43.08-54.98 86.15-.98 1.54.85 1.54h19.93a1.02 1-73.5 0 0 .85-.47l46.88-74.36Zm432.26-11.65a10.97 10.97 0 0 0-10.97-10.97 10.97 10.97 0 0 0-10.97 10.97 10.97 10.97 0 0 0 10.97 10.97 10.97 10.97 0 0 0 10.97-10.97ZM43.96 110.24q7.89 3 14.54 3 26.79.03 53.57 0 10.54-.02 16.11-1.4c49.23-12.25 48.83-82.79-.8-94.21q-6.15-1.42-19.38-1.39-20.57.04-41.14-.01-10.75-.02-16.6 1.29C2.59 28.25-1.6 92.91 43.96 110.24ZM194.5 33.81q29.54-.13 59.08-.03 5.15.01 7.99 1.32c12.83 5.91 11.76 24.56-1.7 28.85q-2.47.79-8.82.79-23.34.02-46.16.01-2.68 0-.66 1.76L257.69 113a1 .98-23.7 0 0 .66.25h24.31q2.75 0 .64-1.77l-33.01-27.7q-2.1-1.76.64-1.77l4.18-.02c18.09-.08 32.3-12.97 33.6-30.83 1.09-14.89-9.05-29.28-23.1-33.36q-5.36-1.56-18.85-1.55h-71.01a1 1 0 0 0-1 1v95a1 1 0 0 0 1 1h16.75a1 1 0 0 0 1-1V34.81a1 1 0 0 1 1-1Zm336.16-9.69q2.1-3.28 4.06-6.32.99-1.54-.84-1.54-29.12-.02-58.2 0-12.13 0-18.13 1.42c-49.1 11.61-49.79 81.86-.78 94.09q5.99 1.49 19.58 1.49 24.62-.01 49.23-.03a1.02 1-73.1 0 0 .84-.46l9.71-15.23q.98-1.54-.84-1.54-30.51-.01-61.16 0-8.23.01-12.18-1.02c-30.17-7.81-31.49-50.19-1.71-59.83q4.18-1.35 11.81-1.37 25.92-.06 51.85-.04a1.01 1.01 0 0 0 .84-.45q3.01-4.62 5.92-9.17ZM564 95V17.25a1 1 0 0 0-1-1h-16.75a1 1 0 0 0-1 1q-.01 42.44.01 84.87c0 8.4 4.26 11.12 12.46 11.12q40.72.02 81.48 0a1.02 1-73.1 0 0 .84-.46l9.82-15.24q1-1.54-.84-1.54H565a1 1 0 0 1-1-1Zm102.64-40.1q5.68-15.21 20.42-19.81 4.16-1.3 11.19-1.32 25.93-.06 51.92.01a1 .99 15.6 0 0 .85-.47l9.83-15.46q.97-1.53-.84-1.54-28.6-.13-57.19-.04-13.79.05-19.87 1.54c-22.02 5.39-37.58 26.42-36.49 48.97 1.07 22.1 16.85 41.41 39.15 45.59q4.65.87 6.64.88 29.81.02 59.63-.02a1 .98 15.9 0 0 .84-.46l9.72-15.24q.98-1.53-.84-1.53-30.85.01-61.65-.01-8.18 0-12.64-1.35-14.8-4.45-20.75-19.78a1 1 0 0 1 .93-1.36H745a1 .98 15.9 0 0 .84-.46l9.78-15.25q.99-1.54-.84-1.54h-87.2a1 1 0 0 1-.94-1.35Zm96.63 110.92a.57.57 0 0 0-.57-.57H12.56a.57.57 0 0 0-.57.57v4.36a.57.57 0 0 0 .57.57H762.7a.57.57 0 0 0 .57-.57v-4.36ZM354.19 268.56c13.58 10.6 38.07 9.45 45.78-8.5 10.33-24.08-.58-53.13-31.23-48.82q-14.81 2.09-20.91 15.57c-5.37 11.87-4.77 33.07 6.36 41.75Zm-103.82 5.49c14.56 3.81 31.99-1.69 32.75-19.26a1 1 0 0 0-1-1.04H270a1 .99-87.1 0 0-.99.9q-1 10.01-10.71 10.61c-17.05 1.05-17.29-40.2-1.38-43.33 7.51-1.48 10.82 3.28 12.11 9.76a1 1 0 0 0 .98.81h11.6a1 1 0 0 0 1-1.04c-.54-15.09-14.64-21.32-27.88-19.19q-13.18 2.12-19.14 13.63c-8.19 15.81-5.14 42.94 14.78 48.15Zm61.24-10.8a.36.36 0 0 1-.36-.36v-50.28a.36.36 0 0 0-.36-.36h-13.03a.36.36 0 0 0-.36.36v60.78a.36.36 0 0 0 .36.36h39.28a.36.36 0 0 0 .36-.36v-9.78a.36.36 0 0 0-.36-.36h-25.53Zm108.18-13.59c.06 12.25 3.92 20.87 16.7 24.07 16.16 4.05 36.27-1.93 36.42-21.74q.15-19.33.03-38.75a1 1 0 0 0-1-.99h-10.93a1 1 0 0 0-1 1q.01 19.51-.03 38.99c-.01 10.25-8.16 13.41-16.98 12.26-7.29-.95-10.04-6.41-10.01-13.26q.06-18.95-.04-38a1 1 0 0 0-1-.99h-11.18a1 1 0 0 0-1 1q-.07 18.23.02 36.41Zm105.94 22.42c15.22-5.18 20.5-23.58 17.32-37.87q-4.7-21.12-27.36-21.58-18.32-.37-23.2-.32a1 1 0 0 0-.99 1v59.42a1 1 0 0 0 .99 1q8.24.06 16.45.02 12.08-.07 16.79-1.67Z"/><path fill="#e7202c" d="m358.85 38.42-46.88 74.36a1.02 1-73.5 0 1-.85.47h-19.93q-1.83 0-.85-1.54 27.51-43.07 54.98-86.15 3.55-5.56 6.49-7.62c7.33-5.14 15.75-2.22 20.44 5.11q28.37 44.3 56.67 88.66.98 1.54-.84 1.54h-19.82a1.01.99-15.3 0 1-.86-.48l-9.7-16.04a1.02 1.01 73.8 0 0-.86-.48h-49.13a1 .98-15.9 0 1-.84-.46l-9.86-15.25q-.99-1.54.84-1.54h46.02q1.8 0 .86-1.53l-24.18-39.04a1 1 0 0 0-1.7-.01ZM791.11 26.77a10.97 10.97 0 0 1-10.97 10.97 10.97 10.97 0 0 1-10.97-10.97 10.97 10.97 0 0 1 10.97-10.97 10.97 10.97 0 0 1 10.97 10.97Zm-2.61-.08a8.37 8.37 0 0 0-8.37-8.37 8.37 8.37 0 0 0-8.37 8.37 8.37 8.37 0 0 0 8.37 8.37 8.37 8.37 0 0 0 8.37-8.37ZM43.96 110.24C-1.6 92.91 2.59 28.25 50.26 17.52q5.85-1.31 16.6-1.29 20.57.05 41.14.01 13.23-.03 19.38 1.39c49.63 11.42 50.03 81.96.8 94.21q-5.57 1.38-16.11 1.4-26.78.03-53.57 0-6.65 0-14.54-3ZM30.83 67.42c1.34 15 14.51 28.54 29.92 28.57q25.22.04 50.44-.01 9.29-.02 13.83-1.45c29.22-9.2 28.64-50.71-.74-59.51q-4.31-1.29-11.73-1.28-23.46.02-46.92.02-8.67 0-13.11 1.37c-13.64 4.24-22.94 18.28-21.69 32.29Z"/><path fill="#e7202c" d="M193.5 34.81v77.44a1 1 0 0 1-1 1h-16.75a1 1 0 0 1-1-1v-95a1 1 0 0 1 1-1h71.01q13.49-.01 18.85 1.55c14.05 4.08 24.19 18.47 23.1 33.36-1.3 17.86-15.51 30.75-33.6 30.83l-4.18.02q-2.74.01-.64 1.77l33.01 27.7q2.11 1.77-.64 1.77h-24.31a1 .98-23.7 0 1-.66-.25l-53.46-46.49q-2.02-1.76.66-1.76 22.82.01 46.16-.01 6.35 0 8.82-.79c13.46-4.29 14.53-22.94 1.7-28.85q-2.84-1.31-7.99-1.32-29.54-.1-59.08.03a1 1 0 0 0-1 1ZM530.66 24.12q-2.91 4.55-5.92 9.17a1.01 1.01 0 0 1-.84.45q-25.93-.02-51.85.04-7.63.02-11.81 1.37c-29.78 9.64-28.46 52.02 1.71 59.83q3.95 1.03 12.18 1.02 30.65-.01 61.16 0 1.82 0 .84 1.54l-9.71 15.23a1.02 1-73.1 0 1-.84.46q-24.61.02-49.23.03-13.59 0-19.58-1.49c-49.01-12.23-48.32-82.48.78-94.09q6-1.42 18.13-1.42 29.08-.02 58.2 0 1.83 0 .84 1.54-1.96 3.04-4.06 6.32ZM565 96h84.02q1.84 0 .84 1.54l-9.82 15.24a1.02 1-73.1 0 1-.84.46q-40.76.02-81.48 0c-8.2 0-12.46-2.72-12.46-11.12q-.02-42.43-.01-84.87a1 1 0 0 1 1-1H563a1 1 0 0 1 1 1V95a1 1 0 0 0 1 1ZM666.64 54.9a1 1 0 0 0 .94 1.35h87.2q1.83 0 .84 1.54l-9.78 15.25a1 .98 15.9 0 1-.84.46h-77.51a1 1 0 0 0-.93 1.36q5.95 15.33 20.75 19.78 4.46 1.35 12.64 1.35 30.8.02 61.65.01 1.82 0 .84 1.53l-9.72 15.24a1 .98 15.9 0 1-.84.46q-29.82.04-59.63.02-1.99-.01-6.64-.88c-22.3-4.18-38.08-23.49-39.15-45.59-1.09-22.55 14.47-43.58 36.49-48.97q6.08-1.49 19.87-1.54 28.59-.09 57.19.04 1.81.01.84 1.54l-9.83 15.46a1 .99 15.6 0 1-.85.47q-25.99-.07-51.92-.01-7.03.02-11.19 1.32-14.74 4.6-20.42 19.81Z"/><path fill="#fff" d="M788.5 26.69a8.37 8.37 0 0 1-8.37 8.37 8.37 8.37 0 0 1-8.37-8.37 8.37 8.37 0 0 1 8.37-8.37 8.37 8.37 0 0 1 8.37 8.37Zm-5 .26q1.27-.8 1.29-2.46.05-3.89-6.09-4.41-2.68-.23-2.69 2.39l-.02 8.96a1.01 1 2.8 0 0 .91 1l.5.04a1 1 0 0 0 1.1-.99v-2.75a.82.79-23.3 0 1 .24-.57c1.37-1.37 2.94 3.83 4.12 4.46q.68.36 1.39.16a1.01 1 67.3 0 0 .59-1.45l-1.68-3.05a1 .99-30.9 0 1 .34-1.33Z"/><path fill="#e7202c" d="M783.5 26.95a1 .99-30.9 0 0-.34 1.33l1.68 3.05a1.01 1 67.3 0 1-.59 1.45q-.71.2-1.39-.16c-1.18-.63-2.75-5.83-4.12-4.46a.82.79-23.3 0 0-.24.57v2.75a1 1 0 0 1-1.1.99l-.5-.04a1.01 1 2.8 0 1-.91-1l.02-8.96q.01-2.62 2.69-2.39 6.14.52 6.09 4.41-.02 1.66-1.29 2.46Zm-1.48-2.11a1 1 0 0 0-.15-1.66q-4.15-2.21-3.31 1.79a1 .99-6.9 0 0 1.01.79q1.36-.03 2.45-.92Z"/><path fill="#fff" d="M782.02 24.84q-1.09.89-2.45.92a1 .99-6.9 0 1-1.01-.79q-.84-4 3.31-1.79a1 1 0 0 1 .15 1.66ZM60.75 95.99c-15.41-.03-28.58-13.57-29.92-28.57-1.25-14.01 8.05-28.05 21.69-32.29q4.44-1.37 13.11-1.37 23.46 0 46.92-.02 7.42-.01 11.73 1.28c29.38 8.8 29.96 50.31.74 59.51q-4.54 1.43-13.83 1.45-25.22.05-50.44.01Z"/><rect width="751.28" height="5.5" x="11.99" y="165.25" rx=".57"/><path d="M354.19 268.56c-11.13-8.68-11.73-29.88-6.36-41.75q6.1-13.48 20.91-15.57c30.65-4.31 41.56 24.74 31.23 48.82-7.71 17.95-32.2 19.1-45.78 8.5Zm7.15-11.67c3.56 8.62 13.3 11.03 20.57 6.32 10.44-6.75 10.61-33.43.11-40.29-9.57-6.26-19.66-.15-22.17 10.09q-3.13 12.73 1.49 23.88ZM250.37 274.05c-19.92-5.21-22.97-32.34-14.78-48.15q5.96-11.51 19.14-13.63c13.24-2.13 27.34 4.1 27.88 19.19a1 1 0 0 1-1 1.04h-11.6a1 1 0 0 1-.98-.81c-1.29-6.48-4.6-11.24-12.11-9.76-15.91 3.13-15.67 44.38 1.38 43.33q9.71-.6 10.71-10.61a1 .99-87.1 0 1 .99-.9h12.12a1 1 0 0 1 1 1.04c-.76 17.57-18.19 23.07-32.75 19.26ZM311.61 263.25h25.53a.36.36 0 0 1 .36.36v9.78a.36.36 0 0 1-.36.36h-39.28a.36.36 0 0 1-.36-.36v-60.78a.36.36 0 0 1 .36-.36h13.03a.36.36 0 0 1 .36.36v50.28a.36.36 0 0 0 .36.36ZM436.49 273.73c-12.78-3.2-16.64-11.82-16.7-24.07q-.09-18.18-.02-36.41a1 1 0 0 1 1-1h11.18a1 1 0 0 1 1 .99q.1 19.05.04 38c-.03 6.85 2.72 12.31 10.01 13.26 8.82 1.15 16.97-2.01 16.98-12.26q.04-19.48.03-38.99a1 1 0 0 1 1-1h10.93a1 1 0 0 1 1 .99q.12 19.42-.03 38.75c-.15 19.81-20.26 25.79-36.42 21.74ZM543.05 234.21c3.18 14.29-2.1 32.69-17.32 37.87q-4.71 1.6-16.79 1.67-8.21.04-16.45-.02a1 1 0 0 1-.99-1v-59.42a1 1 0 0 1 .99-1q4.88-.05 23.2.32 22.66.46 27.36 21.58ZM528.8 250.7c3.18-11.79.72-25.98-13.82-28.01q-4.37-.61-8.8-.3a1.01 1-2.2 0 0-.93 1v39.08a1 .99-89.4 0 0 .97 1q3.83.1 7.5.03c8.32-.16 12.96-4.95 15.08-12.8Z"/><path fill="#fff" d="M381.91 263.21c-7.27 4.71-17.01 2.3-20.57-6.32q-4.62-11.15-1.49-23.88c2.51-10.24 12.6-16.35 22.17-10.09 10.5 6.86 10.33 33.54-.11 40.29ZM528.8 250.7c-2.12 7.85-6.76 12.64-15.08 12.8q-3.67.07-7.5-.03a1 .99-89.4 0 1-.97-1v-39.08a1.01 1-2.2 0 1 .93-1q4.43-.31 8.8.3c14.54 2.03 17 16.22 13.82 28.01Z"/></svg>